<?xml version="1.0" encoding="UTF-8"?><!DOCTYPE svg PUBLIC "-//W3C//DTD SVG 1.1//EN" "http://www.w3.org/Graphics/SVG/1.1/DTD/svg11.dtd"><svg xmlns="http://www.w3.org/2000/svg" xmlns:xlink="http://www.w3.org/1999/xlink" version="1.1" width="24" height="24" viewBox="0 0 24 24"><path d="M18,3V5H10V3H18M18,1H6A2,2 0 0,0 4,3V5A2,2 0 0,0 6,7H18A2,2 0 0,0 20,5V3A2,2 0 0,0 18,1H18M6,5V3H8V5H6V5M18,11V13H10V11H18M18,9H6A2,2 0 0,0 4,11V13A2,2 0 0,0 6,15H18A2,2 0 0,0 20,13V11A2,2 0 0,0 18,9H18M6,13V11H8V13H6V13M18,19V21H10V19H18M18,17H6A2,2 0 0,0 4,19V21A2,2 0 0,0 6,23H18A2,2 0 0,0 20,21V19A2,2 0 0,0 18,17H18M6,21V19H8V21H6V21Z" /></svg>